<svg id="Layer_1" data-name="Layer 1" xmlns="http://www.w3.org/2000/svg" width="367" height="195.91" viewBox="0 0 367 195.91"><defs><style>.cls-1{fill:#f0dcd4;}.cls-2{fill:none;stroke:#f0dcd4;stroke-miterlimit:10;}</style></defs><title>logo4</title><path class="cls-1" d="M152.52,67l6.61.13h1.32q-4.37,3.57-10.71,18.05t-6.35,21.1c0,2.3.8,3.44,2.38,3.44q7.68,0,19.58-22.62c.35-.61.66-.92.92-.92.53,0,.8.81.8,2.44a9.15,9.15,0,0,1-1.33,4.7q-16.26,27.38-27.24,27.38-7.14,0-7.14-11a48.57,48.57,0,0,1,2.77-16.14q-15.07,26.73-27.91,26.72-8.85,0-8.86-12.17a47.9,47.9,0,0,1,4-18.78A44.47,44.47,0,0,1,113,73.12q7.55-6.68,16.53-6.68a17,17,0,0,1,7.94,1.92,9.48,9.48,0,0,1,4.89,6.15,14.17,14.17,0,0,1,4.5-5.29A9.76,9.76,0,0,1,152.52,67Zm-11,8.73c-.88-2.82-3-4.24-6.22-4.24q-8.73,0-16.93,12.11t-8.2,21.62c0,2.74,1.06,4.1,3.18,4.1q3.43,0,8.07-4.3a51.28,51.28,0,0,0,8.33-10.11Q138,81.92,141.54,75.7Z"/><path class="cls-1" d="M253.7,93.29q-4.89,8.2-8.93,13.69a49.85,49.85,0,0,1-9.19,9.59q-5.16,4.09-9.39,4.1-7.8,0-7.8-9,0-10.44,8.33-29.76,1.84-4.89,1.85-6.74c0-1.76-.79-2.65-2.38-2.65a14.39,14.39,0,0,0-5,1.72,23.51,23.51,0,0,0-6.81,5.16,52.59,52.59,0,0,0-5.22,6.35,49.07,49.07,0,0,0-4.37,8.73q-2.37,5.82-3.17,8.2-3.84,11.91-5.16,17.19h-13q6.87-19,9.45-25.65T196,86l1.19-3.7a22.55,22.55,0,0,0,1.46-7c0-1.85-.84-2.78-2.51-2.78a13.93,13.93,0,0,0-5.76,1.85,27.06,27.06,0,0,0-7.07,5.43,32.49,32.49,0,0,0-5.76,8.26c-1.54,3.14-2.78,5.85-3.7,8.14s-1.88,5.09-2.85,8.4-1.83,6-2.58,8.07-1.52,4.47-2.31,7.2H153.31a89.69,89.69,0,0,1,3.17-9.92l8.6-22q5.29-13.23,5.29-19.31a3.68,3.68,0,0,0-.26-1.72h5.55q4.5,0,5.82.86a2.64,2.64,0,0,1,1.33,2.31,33,33,0,0,1-1.59,6.75Q192.86,66.3,204.5,66.31q7,0,7,5.82a17.67,17.67,0,0,1-1.46,6.21q12-12,24.74-12,6.87,0,6.88,5.82a13.64,13.64,0,0,1-.93,5q-.93,2.38-2.38,6.15c-1,2.52-1.77,4.59-2.38,6.22s-1.32,3.64-2.12,6q-2.51,7.27-2.51,10.78c0,2.33.73,3.5,2.18,3.5s3.28-1,5.49-2.91a40,40,0,0,0,5-5q1.65-2.11,4.1-6t4.17-6.81q1.71-2.91,2-2.91c.53,0,.79.81.79,2.44A9.14,9.14,0,0,1,253.7,93.29Z"/><path class="cls-1" d="M301.85,85.49c.53,0,.79.85.79,2.57a12.7,12.7,0,0,1-2.12,6.16c-1.41,2.38-2.8,4.62-4.16,6.74a87.25,87.25,0,0,1-5.49,7.41,40.38,40.38,0,0,1-6.75,6.74q-8.33,6.09-16.73,6.09t-13.56-4.3q-5.16-4.31-5.16-13.16,0-13.5,9.92-25t23.15-11.51q6,0,9.52,3.11a9.55,9.55,0,0,1,3.58,7.47q0,7.41-7,11.91a30,30,0,0,1-16.54,4.5c-3.7,0-6.44-.49-8.2-1.46a34.9,34.9,0,0,0-2.51,11.9q0,11.11,9.39,11.11,5.55,0,11.44-4.29a50,50,0,0,0,10-9.66,107.6,107.6,0,0,0,9.46-15.41C301.27,85.8,301.58,85.49,301.85,85.49ZM287.83,75q0-3.84-3.71-3.84-5.16,0-11.51,6.35t-6.34,10.32q0,2.64,5,2.64t10.52-4.89Q287.3,80.73,287.83,75Z"/><path class="cls-1" d="M123.52,33.83l11.71-.54c2.22,0,3.46.45,3.71,1.34a8.42,8.42,0,0,1,.38,2q0,3.77-2.63,9.51c-1.76,3.83-3,5.75-3.77,5.75s-1.12-.28-1.12-.86l.86-6.45a6,6,0,0,0-3.07-5.21,12.29,12.29,0,0,0-6.82-2,20.7,20.7,0,0,0-5.54.54,5.48,5.48,0,0,0-3,2.26q-5.06,7.2-13.33,26.65h23.86l.11.11a7.39,7.39,0,0,1-1.51,2.95c-1,1.47-1.82,2.2-2.47,2.2H98.7Q88.28,97.45,88.27,106.47a4.92,4.92,0,0,0,.43,2.37H74.84q2.89-12.25,12.89-36.76H81.82c-.57,0-.86-.17-.86-.53,0-.72.68-1.69,2.05-2.9s2.47-1.83,3.33-1.83H90q9.14-21.6,14.08-28.91Q79.79,41.35,75,49.62a.51.51,0,0,1-.54.33c-.29,0-.43-.2-.43-.59a1.87,1.87,0,0,1,.11-.81Q78.17,37.38,89,34.9a65.31,65.31,0,0,1,13.22-1.07Z"/><path class="cls-1" d="M85.9,104.62l3.48,5.54a17.26,17.26,0,0,1,1.67,3.46l1.09,3.1a10.94,10.94,0,0,1,.46,5.5l-.87,5a22.83,22.83,0,0,1-.55,2.42l-9,32.32a.89.89,0,0,1-1,.64h-.08a.9.9,0,0,1-.76-1.07l7.84-38.4a.88.88,0,0,0-.73-1.06l-1.15-.2a.89.89,0,0,0-1,.7l-8.35,38.28a.89.89,0,0,1-1,.68,1,1,0,0,1-.77-1.09L80.93,122a.89.89,0,0,0-.79-1l-.86-.09a.89.89,0,0,0-1,.73l-6.74,38.57A.89.89,0,0,1,69.8,160l4.12-38.71a.9.9,0,0,0-.85-1l-1.13-.06A.91.91,0,0,0,71,121L66.5,159a.91.91,0,0,1-.94.79l-.35,0a.9.9,0,0,1-.85-.95l2.23-36.75a13.61,13.61,0,0,1,.91-4.17l1.74-4.49a8.79,8.79,0,0,1,1.88-2.94l7.06-7.34a.88.88,0,0,0,.21-.36l1.17-3.82a.89.89,0,0,1,.94-.63l3.93.35a.9.9,0,0,1,.81.8l.53,4.78A.86.86,0,0,0,85.9,104.62Z"/><ellipse class="cls-2" cx="183.5" cy="97.96" rx="183" ry="97.46"/></svg>
